<?xml version="1.0" encoding="UTF-8"?>
<!DOCTYPE svg PUBLIC "-//W3C//DTD SVG 1.1//EN" "http://www.w3.org/Graphics/SVG/1.1/DTD/svg11.dtd">
<!-- Creator: CorelDRAW 2021.5 -->
<svg xmlns="http://www.w3.org/2000/svg" xml:space="preserve" width="148mm" height="148mm" version="1.1" style="shape-rendering:geometricPrecision; text-rendering:geometricPrecision; image-rendering:optimizeQuality; fill-rule:evenodd; clip-rule:evenodd"
viewBox="0 0 14800 14800"
 xmlns:xlink="http://www.w3.org/1999/xlink"
 xmlns:xodm="http://www.corel.com/coreldraw/odm/2003">
 <defs>
  <style type="text/css">
   <![CDATA[
    .str0 {stroke:#5AB31B;stroke-width:20;stroke-miterlimit:22.9256}
    .fil9 {fill:none}
    .fil0 {fill:#109704}
    .fil6 {fill:#5AB31B}
    .fil10 {fill:#A8B45F}
    .fil2 {fill:#C0E217}
    .fil3 {fill:#F4B313}
    .fil1 {fill:#F9B109}
    .fil4 {fill:url(#id0)}
    .fil8 {fill:url(#id1)}
    .fil5 {fill:url(#id2)}
    .fil7 {fill:url(#id3)}
   ]]>
  </style>
  <linearGradient id="id0" gradientUnits="userSpaceOnUse" x1="9711.38" y1="7961.42" x2="6258.86" y2="7451.34">
   <stop offset="0" style="stop-opacity:1; stop-color:#109704"/>
   <stop offset="1" style="stop-opacity:1; stop-color:#C5D95B"/>
  </linearGradient>
  <linearGradient id="id1" gradientUnits="userSpaceOnUse" x1="10900.46" y1="7856.38" x2="10362.94" y2="5817.41">
   <stop offset="0" style="stop-opacity:1; stop-color:#109704"/>
   <stop offset="1" style="stop-opacity:1; stop-color:#BED55F"/>
  </linearGradient>
  <linearGradient id="id2" gradientUnits="userSpaceOnUse" x1="9038.67" y1="8573.61" x2="4922.9" y2="8995.32">
   <stop offset="0" style="stop-opacity:1; stop-color:#109704"/>
   <stop offset="0.509804" style="stop-opacity:1; stop-color:#6BB836"/>
   <stop offset="1" style="stop-opacity:1; stop-color:#C6D969"/>
  </linearGradient>
  <linearGradient id="id3" gradientUnits="userSpaceOnUse" x1="10521.26" y1="7535.58" x2="7545.45" y2="4299.24">
   <stop offset="0" style="stop-opacity:1; stop-color:#109704"/>
   <stop offset="1" style="stop-opacity:1; stop-color:#BBD738"/>
  </linearGradient>
 </defs>
 <g id="Слой_x0020_1">
  <metadata id="CorelCorpID_0Corel-Layer"/>
  <g id="_105553226215040">
   <path class="fil0" d="M2465.05 8877.29c145.06,106.29 72.68,102.97 177.77,239.82 110.27,143.61 142.51,91.35 239.82,224.18 -235.25,0 -252.8,46.39 -510.4,46.39 -54.62,-234.5 -178.27,-328.87 92.81,-510.39zm1995.18 0l83.11 148.89c19.12,32.88 51.74,85.73 52.39,86.83 17.09,29.34 25.22,20.36 50.11,89.07 -172.47,-46.05 -179.61,-107.76 -185.61,-324.79zm-1623.99 46.4c0,-250.79 47.09,-174.98 92.81,-371.21 726.85,169.34 254.62,67.11 834.69,-2.69 228.96,-27.54 223.58,-42.62 418.1,2.69 274.02,1176.23 -457.29,473.89 -1113.6,788.81 -26.88,-57.06 16.64,-72.2 -80.53,-194.21 -68.62,-86.15 -151.47,-95.91 -151.47,-223.39zm8166.35 -739.56l-124.05 -226.84 -13.12 177.6 -2.36 324.8c-5.86,-9.76 -12.89,-37.58 -14.95,-31.09l-50.92 -134.7c-20.09,-67.68 -38.29,-156.83 -54.48,-224.08 -34.25,-142.21 -52.38,-284.77 -111.31,-382.27 -54.2,-29.54 -62.1,-9.29 -92.81,-50.3 -25.97,32.33 -55.03,23.28 -92.79,51.83 6.18,234.56 118.35,473.64 139.2,724.21l-92.81 -89.83c-194.02,-46.66 -398.87,-203.57 -505.51,-327.77l-51.28 -3.06 -159.85 -14.34c75.55,207.64 -1.39,39.63 153.55,201.32 -179.14,-9.17 -39.47,-13.53 -95.52,48.08 135.2,102.99 193.66,87.85 349.29,170.22 446.09,236.13 541.32,241.88 541.32,1036.17 -203.75,-54.4 -1026.74,-767.25 -1531.18,-791.91l-156.99 38.51c37.88,66.98 0.42,68.32 50.04,103.8 200.96,116.33 1120.85,462.75 1359.74,788.81 -137.46,-32.03 -149.32,-29.11 -317.79,-53.41l-946.71 -166.9c-1590.34,-208.76 -2734.03,-197.29 -4349.86,-197.29 -71.03,-266 -139.21,-11.64 -139.21,-603.21 87.87,-46.48 276.19,-132.25 393.3,-163.5 202.33,-53.99 316.23,-38.18 489.28,-113.91 104.87,-45.89 245.65,-141.78 337.28,-220.14 176.78,-151.2 180.63,-148.36 125.74,-384.03 -299.64,0 -288.5,-21.68 -464,-139.21 21.12,-253.86 120.36,-284.07 139.19,-510.39 -401.22,93.48 -170.21,-127.65 -421.39,36.67 -270.47,176.93 -109,112.48 -514.09,62.19 -280.93,-34.87 -346.67,39.3 -596.03,43.7 -254.44,4.5 -352.2,-52.03 -648.19,-50.84 -488.53,1.94 -813.42,-31.28 -1147.65,153.7 -354.27,196.06 -370.49,286.66 -503.33,517.46 -79.32,137.82 -75.6,70.34 -113.29,211.51l65.94 44.72c7.42,4.72 34.17,18.2 42.08,24.39 121.91,95.37 71.97,189.68 150.5,369.61 228.41,523.35 -14.71,245.21 -8.97,528.04 2.84,139.61 75.25,42.53 75.25,471.63 -132.3,11.01 -245.15,49.3 -390.52,73.49 -161.55,26.85 -273.66,35.55 -402.61,61.37 -216.21,43.29 -623.97,138.93 -830.86,143.54 23.52,282.62 229.39,814.65 340,1051.99l495.2 896.79c190.28,-4.23 1069.39,-379.48 1409.49,-492.88 1844.77,-615.12 2959.5,-725.44 4861.24,-938.72 814.33,-91.33 2887.98,20.35 3713.81,123.81 675.45,84.61 2143.12,325.14 2816.62,524.16 128.51,37.97 247.53,83.74 422.75,87.65 -126.23,-172.28 -578.3,-324.35 -795.43,-410.97 -751.84,-299.95 -982.96,-391.98 -1792.9,-619.89 -208.84,-58.76 -815.07,-187.07 -984.45,-268.34 0,-311.59 44.9,-423.48 48.24,-694.14 3.23,-260.72 -1.84,-526.39 -1.84,-787.81z"/>
   <path class="fil1" d="M3857.03 2739.37c68.19,142.1 117.43,321.91 185.6,464 408.68,-95.21 747.45,-278.39 1392,-278.39 1255.08,0 1957.53,29.47 3139.95,664.81 178.98,96.16 290.08,179.64 454.1,288.31l999.52 856.46c6.16,7.38 14.75,18.1 20.92,25.48 6.16,7.37 14.95,17.91 21.15,25.24l42.62 50.18c559.06,634.8 896.21,1201.67 1162.74,2038.85 100.91,316.94 235.93,853.11 237.43,1247.46l-46.47 1391.96c13.39,6.42 375.81,110.12 405.55,114.22 227.93,31.52 122.53,-103.96 125.45,-245.74 10.67,-518.09 622.55,-835.62 1062.59,-966.07l637.41 -151.38c216.83,-48.49 62.93,65.59 181.78,-96.62 -1733.91,0 -2931.39,-1061.33 -1021.45,-2320.64 144.55,-95.3 369.71,-194.56 464.66,-324.14 -173.68,14.45 -259,68.07 -444.95,111.85 -1217.68,286.61 -2486.06,-85.29 -1548.67,-1641.47 244.42,-405.76 449.02,-487.28 508.83,-743.97 -772.85,517.52 -917.11,649.6 -1763.2,649.6 -701.69,0 -727.41,-1004.77 -516.58,-1676.59 69.12,-220.22 192.51,-493.72 238.19,-689.8 -138,49.95 -53.16,-5.54 -169.36,155.44 -642.78,890.34 -1839.31,1786.97 -2285.61,350.74 -82.15,-264.41 -70.08,-369.47 -105.2,-684.22 -39.45,-353.74 8.19,-358.55 8.19,-703.55 -149.34,109.41 -119.33,220.48 -225.51,516.89 -98.62,275.25 -346.91,731.33 -549.27,935.53 -502.61,507.18 -1106.74,266.35 -1508.48,-375.55 -135.46,-216.43 -382.9,-776.02 -407.93,-1076.87l-92.8 0c0,313.37 88.24,730.19 -54.45,1244.73 -111.88,403.45 -227.4,628.07 -548.75,843.25z"/>
   <path class="fil2" d="M1490.66 11833.72c183.8,347.39 741.29,821.9 1085.39,1048.98 244.92,161.63 388.44,268.95 662.11,405.09 1225.33,609.64 515.97,312.52 2307.56,-878.99 299.51,-199.2 513.75,-331.25 847.82,-497.77 1474.13,-734.76 2523.89,-995.84 4244.58,-1184.19 382.4,-41.86 979.73,-6.72 1385.27,-6.72l0 -92.8c-301.32,0 -503.09,-61.35 -749.48,-85.7 -312.74,-30.94 -503.73,-38.23 -800.69,-80.93l-1651.42 -65.37c-2254.43,0 -3723.46,294.61 -5697.42,844.94 -521.53,145.39 -776.08,274.09 -1233.78,436.6 -177.1,62.89 -240.77,119.77 -399.94,156.86z"/>
   <path class="fil0" d="M9842.59 5523.36c-49.45,-185.23 -381.93,-497.94 -521.99,-638 -428.17,-428.17 -522.58,-479.88 -981.56,-781.64 -149.88,-98.55 -212.75,-139.72 -382.55,-220.62 -1280.27,-610 -2576.26,-753.4 -3983.1,-284.97 -362.37,120.65 -529.5,207.38 -843.37,363.02 -303.12,150.31 -466.58,264.52 -711.72,448.27l-307.57 249.21c-983.98,846.25 -1450.43,1883.7 -1700.32,3125.26 -34.64,172.16 -110.55,1530.17 36,1617.23 91.04,54.08 910.85,-124.04 997.84,-165.79 0,-529.24 -139.17,-893.13 85.78,-1723.8 411.8,-1520.56 1225.76,-2552.19 2612.22,-3234.15 1572.05,-773.24 3865.66,-518.24 5202.49,769.44 173.77,167.38 304.84,347.29 497.85,476.54z"/>
   <path class="fil1" d="M4367.44 13702.86c416.76,199.97 1970.19,179.47 2440.17,27.39 210.96,-68.27 612.75,-931.66 1271.8,-1372.99 484.85,-359.59 400.53,-312.53 1035.71,-681.08 524.04,-261.88 568.31,-294.66 1139.14,-484.85 100.12,-33.35 187.69,-66.05 315.14,-102.46 160.43,-45.82 191.42,-34.44 293.98,-123.59 -1885.43,0 -3710.65,693.02 -5252.73,1660.81 -379.54,238.21 -740.9,577.39 -1085.09,863.7 -142.8,118.78 -117.29,60.09 -158.12,213.07z"/>
   <path class="fil3" d="M7197.81 5720.25l78.1 174.3c-243.15,134.41 -217.16,15.06 -309.86,324.52l185.36 0.51c351.62,97.38 39.6,-176.38 464,-185.82l0 92.79c-227.66,53.05 -184.83,55.18 -278.39,232 595.04,314.86 401.35,-193.87 835.18,-92.8 -147.18,200.9 -251.1,-3.21 -278.39,324.8 193.18,45.01 262.62,122.32 459.27,43.48 210.1,-84.24 213.72,-218.47 375.93,2.92 -235.46,54.85 -251.71,53.55 -371.2,232 111.08,74.38 171.32,146.92 371.45,144.43 204.84,-2.52 221.98,-65.6 370.94,-144.43l194.19 223.93c-301.34,8.06 -351.15,12.32 -472.59,193.66 263.82,360.07 622,106.68 788.81,92.8 54.83,205.41 281.92,307.89 376.07,603.2 106.64,124.2 311.49,281.11 505.51,327.76 -432.42,-848.19 -419.54,-634.42 -742.39,-1116.55 63.41,-272.17 238.21,-294.48 -92.81,-788.8 -156.51,104.82 -211.96,176.91 -232,417.6 -456.66,-121.94 192.68,-672.24 -417.59,-835.19 -54.2,232.65 -92.79,129.13 -92.79,464 -336.96,-178.31 -137.96,-103.46 -146.91,-414.79 -6.14,-214.11 -121.41,-295.02 -270.69,-374.02 -105.95,200.21 -145.13,239.39 -92.81,464 -565.19,-47.03 -4.68,-556.55 -603.19,-696 -63.17,271.17 -63.17,239.24 0,510.4 -320.02,-153.55 -199.53,119.02 -292.27,-310.93 -41.03,-190.26 -119.66,-272.48 -357.33,-292.26 -13.03,156.69 -58.16,259.26 46.4,382.49z"/>
   <path class="fil4" d="M9841.31 8229.64c56.17,-61.74 -83.8,-57.38 95.73,-48.19 -155.28,-162.05 -78.17,6.34 -153.88,-201.76l160.19 14.37c-951.15,-781.16 -3128.2,-802.62 -3627.14,-368.94 341.78,-7.62 714.83,-250.58 1807.31,-133.24 377.36,40.53 1328.78,325.81 1494.33,551.75 -332.79,-77.53 -1308.47,-207.54 -1674.06,46.51 718.8,0 626.5,-146.53 1453.75,34.32 183.52,40.13 290.66,91.3 443.77,105.18z"/>
   <path class="fil5" d="M8487.53 8598.89c-55.32,-95.53 -15.55,-6.88 -41.33,-150.22l204.72 -11.39c-908.96,-292.46 -2790.91,118.31 -3169.9,625.61 268.45,-61.33 386.92,-155.09 641.01,-252.97 661.6,-254.85 1239.53,-279.62 1963.14,-258.95 225.84,6.45 215.26,42.93 402.36,47.92zm0 0c116.78,43.58 232.52,50.81 353.71,92.17 98.08,33.47 219.87,107.13 326.89,135.75 -50.59,-35.49 -23.59,-79.15 -62.21,-146.13l322.94 11.25c-39.59,-31.86 -174.27,-76.6 -275.35,-121.87 -15.82,-7.08 -128.76,-44.14 -140.19,-47.83 -152.66,-49.23 -182.86,-51.94 -362.4,-84.95l-204.72 11.39c25.78,143.34 -13.99,54.69 41.33,150.22z"/>
   <path class="fil3" d="M6973.43 6232.22c93.88,-309.46 67.56,-190.11 313.79,-324.52l-79.09 -174.3c-77.61,85.43 94.24,81.51 -234.94,81.51 0,-339.02 -83.21,-502.93 -422.88,-510.4 0,331.64 82.11,260.96 140.97,510.4 -593.58,212.17 -202.38,668.67 114.41,298.91 137.12,-160.06 1.08,-184.72 261.49,-206.12 -543.62,725.6 902.64,178.81 -93.75,324.52z"/>
   <path class="fil6 str0" d="M9497.65 5657.32l36.54 29.92c32.64,26.71 47.9,41.05 68.04,78.1l24.58 45.23c20.11,37 30.49,202.59 2.37,171.18l-106.86 -119.29c-28.1,-31.4 -52.7,-54.27 -75.81,-89.51l-25.55 -38.94c-23.13,-35.25 44.05,-103.41 76.69,-76.69z"/>
   <path class="fil7" d="M9538.66 5888.25l-70.41 -201.84 142.36 1.78 -374.8 -400.17c-382.1,-332.74 -1036.64,-840.49 -1574,-885.19 100.92,137.73 540.37,274.61 994.12,629.85 457.91,358.51 811.17,808.54 882.73,855.57zm653.02 1165.63c35.29,98.01 41.28,116.19 74.86,206.21 49.5,132.71 99.11,297.06 179.26,442.14 37.76,-28.54 66.82,-19.49 92.79,-51.82 30.71,41.01 48.84,25.71 103.04,55.25 -58.77,-295.53 -197.46,-660.8 -346.55,-937.07l-34.89 -55.8c-136.42,-295.35 -412.26,-848.4 -649.58,-1024.6l-142.36 -1.78 51.06 152.7c30.85,121.99 302.46,444.73 446.21,746.73 96.24,202.21 151.24,259.93 226.16,468.04z"/>
   <path class="fil3" d="M6177.02 5861.3c-272.3,72.71 -342.61,371.21 -185.6,371.21 493.07,0 582.86,-833.09 0,-881.6 0,490.11 103.79,203.99 185.6,510.39z"/>
   <path class="fil8" d="M10865.12 8174.65l13.42 -204.21 124.05 226.84c0,-384.88 -108.56,-741.81 -194.59,-1061.02 -37.67,-139.74 -97.16,-289.24 -162.08,-441.13 -66.9,-156.53 -126.25,-314.96 -246.52,-403.08 12.73,153.11 87.96,291.71 139.53,417.27 117.64,286.44 178.2,593.24 244.01,915.98 58.16,285.2 9.18,315.99 50.18,460.88l32 88.47z"/>
   <path class="fil3" d="M5434.63 5954.11c249.05,119.5 533.12,98.9 556.79,-185.6 -295.21,-68.78 -397.05,-116.3 -556.79,185.6z"/>
   <polyline class="fil9" points="9842.59,5582.91 9896.73,5544.24 9842.59,5536.51 "/>
   <polygon class="fil10" points="10399.4,6278.9 10373.87,6179.15 "/>
  </g>
 </g>
</svg>
