<?xml version="1.0" encoding="UTF-8"?>
<!DOCTYPE svg PUBLIC "-//W3C//DTD SVG 1.1//EN" "http://www.w3.org/Graphics/SVG/1.1/DTD/svg11.dtd">
<!-- Creator: CorelDRAW 2021.5 -->
<svg xmlns="http://www.w3.org/2000/svg" xml:space="preserve" width="148mm" height="148mm" version="1.1" style="shape-rendering:geometricPrecision; text-rendering:geometricPrecision; image-rendering:optimizeQuality; fill-rule:evenodd; clip-rule:evenodd"
viewBox="0 0 14800 14800"
 xmlns:xlink="http://www.w3.org/1999/xlink"
 xmlns:xodm="http://www.corel.com/coreldraw/odm/2003">
 <defs>
  <style type="text/css">
   <![CDATA[
    .str0 {stroke:#5AB31B;stroke-width:20;stroke-miterlimit:22.9256}
    .fil12 {fill:none}
    .fil0 {fill:#109704}
    .fil5 {fill:#14940B}
    .fil7 {fill:#1A930C}
    .fil9 {fill:#5AB31B}
    .fil13 {fill:#A8B45F}
    .fil2 {fill:#C0E217}
    .fil3 {fill:#F4B313}
    .fil1 {fill:#F9B109}
    .fil4 {fill:#FAB10D}
    .fil10 {fill:url(#id0)}
    .fil8 {fill:url(#id1)}
    .fil11 {fill:url(#id2)}
    .fil6 {fill:url(#id3)}
   ]]>
  </style>
  <linearGradient id="id0" gradientUnits="userSpaceOnUse" x1="8241.16" y1="6642.61" x2="5978.65" y2="4182.01">
   <stop offset="0" style="stop-opacity:1; stop-color:#109704"/>
   <stop offset="1" style="stop-opacity:1; stop-color:#BBD738"/>
  </linearGradient>
  <linearGradient id="id1" gradientUnits="userSpaceOnUse" x1="7113.95" y1="7431.82" x2="3984.72" y2="7752.45">
   <stop offset="0" style="stop-opacity:1; stop-color:#109704"/>
   <stop offset="0.509804" style="stop-opacity:1; stop-color:#6BB836"/>
   <stop offset="1" style="stop-opacity:1; stop-color:#C6D969"/>
  </linearGradient>
  <linearGradient id="id2" gradientUnits="userSpaceOnUse" x1="8529.47" y1="6886.51" x2="8120.79" y2="5336.28">
   <stop offset="0" style="stop-opacity:1; stop-color:#109704"/>
   <stop offset="1" style="stop-opacity:1; stop-color:#BED55F"/>
  </linearGradient>
  <linearGradient id="id3" gradientUnits="userSpaceOnUse" x1="7625.41" y1="6966.38" x2="5000.45" y2="6578.56">
   <stop offset="0" style="stop-opacity:1; stop-color:#109704"/>
   <stop offset="1" style="stop-opacity:1; stop-color:#C5D95B"/>
  </linearGradient>
 </defs>
 <g id="Слой_x0020_1">
  <metadata id="CorelCorpID_0Corel-Layer"/>
  <g id="_105553290866656">
   <path class="fil0" d="M2116.01 7662.71c110.29,80.81 55.26,78.29 135.16,182.34 83.84,109.18 108.35,69.45 182.34,170.44 -178.86,0 -192.21,35.27 -388.06,35.27 -41.53,-178.29 -135.54,-250.04 70.56,-388.05zm1516.94 0l63.19 113.2c14.54,25 39.34,65.18 39.83,66.02 13,22.31 19.18,15.48 38.1,67.72 -131.13,-35.01 -136.56,-81.93 -141.12,-246.94zm-1234.72 35.28c0,-190.68 35.8,-133.04 70.56,-282.23 552.63,128.75 193.59,51.02 634.62,-2.05 174.08,-20.94 169.99,-32.4 317.88,2.05 208.34,894.29 -347.68,360.3 -846.67,599.73 -20.44,-43.38 12.65,-54.89 -61.23,-147.66 -52.17,-65.5 -115.16,-72.92 -115.16,-169.84zm6208.89 -562.29l-94.32 -172.47 -9.97 135.03 -1.8 246.95c-4.45,-7.42 -9.8,-28.57 -11.36,-23.64l-38.72 -102.41c-15.27,-51.46 -29.11,-119.24 -41.42,-170.37 -26.04,-108.12 -39.82,-216.51 -84.63,-290.64 -41.21,-22.46 -47.21,-7.06 -70.56,-38.24 -19.75,24.58 -41.84,17.7 -70.55,39.4 4.7,178.34 89.98,360.11 105.83,550.62l-70.56 -68.3c-147.51,-35.47 -303.26,-154.77 -384.34,-249.2l-38.99 -2.33 -121.53 -10.9c57.44,157.87 -1.06,30.13 116.74,153.06 -136.2,-6.97 -30.01,-10.28 -72.62,36.56 102.79,78.3 147.24,66.79 265.56,129.42 339.17,179.53 411.57,183.9 411.57,787.8 -154.91,-41.36 -780.63,-583.34 -1164.16,-602.09l-119.36 29.28c28.8,50.92 0.32,51.94 38.05,78.92 152.79,88.44 852.18,351.83 1033.81,599.73 -104.51,-24.35 -113.53,-22.13 -241.62,-40.61l-719.78 -126.89c-1209.14,-158.72 -2078.69,-150 -3307.21,-150 -54,-202.24 -105.84,-8.85 -105.84,-458.62 66.81,-35.34 209.99,-100.55 299.03,-124.31 153.83,-41.05 240.43,-29.03 372,-86.61 79.73,-34.89 186.77,-107.79 256.43,-167.37 134.41,-114.96 137.34,-112.8 95.6,-291.98 -227.81,0 -219.34,-16.48 -352.78,-105.84 16.06,-193.01 91.51,-215.98 105.83,-388.05 -305.05,71.07 -129.41,-97.05 -320.38,27.88 -205.64,134.52 -82.88,85.52 -390.87,47.28 -213.59,-26.51 -263.57,29.88 -453.16,33.23 -193.45,3.42 -267.78,-39.56 -492.82,-38.66 -371.43,1.48 -618.44,-23.78 -872.56,116.86 -269.35,149.07 -281.68,217.95 -382.68,393.43 -60.31,104.78 -57.48,53.48 -86.14,160.81l50.14 34c5.64,3.59 25.98,13.84 31.99,18.54 92.69,72.51 54.72,144.22 114.43,281.02 173.66,397.9 -11.19,186.43 -6.82,401.47 2.16,106.14 57.21,32.33 57.21,358.58 -100.59,8.37 -186.39,37.48 -296.91,55.87 -122.83,20.42 -208.07,27.03 -306.11,46.66 -164.38,32.92 -474.4,105.63 -631.7,109.14 17.88,214.87 174.4,619.38 258.5,799.83l376.5 681.83c144.67,-3.22 813.06,-288.52 1071.64,-374.74 1402.58,-467.68 2250.11,-551.55 3696.01,-713.71 619.13,-69.44 2195.73,15.47 2823.61,94.13 513.55,64.33 1629.42,247.21 2141.48,398.52 97.71,28.87 188.2,63.67 321.42,66.64 -95.97,-130.98 -439.68,-246.6 -604.77,-312.46 -571.62,-228.05 -747.34,-298.02 -1363.14,-471.3 -158.78,-44.68 -619.7,-142.23 -748.48,-204.02 0,-236.9 34.14,-321.97 36.68,-527.76 2.45,-198.22 -1.4,-400.21 -1.4,-598.97z"/>
   <path class="fil1" d="M3174.34 3006.04c51.84,108.04 89.28,244.75 141.11,352.78 310.72,-72.39 568.29,-211.66 1058.34,-211.66 954.24,0 1488.31,22.41 2387.31,505.46 136.08,73.11 220.55,136.58 345.25,219.2l759.94 651.17c4.68,5.61 11.21,13.76 15.9,19.37 4.69,5.6 11.37,13.62 16.08,19.19l32.41 38.15c425.05,482.64 681.39,913.63 884.03,1550.14 76.72,240.97 179.38,648.62 180.52,948.45l-35.33 1058.31c10.18,4.88 285.73,83.72 308.34,86.84 173.29,23.96 93.16,-79.04 95.38,-186.84 8.11,-393.9 473.32,-635.32 807.89,-734.5l484.62 -115.1c164.86,-36.86 47.85,49.87 138.21,-73.46 -1318.3,0 -2228.74,-806.93 -776.61,-1764.38 109.9,-72.46 281.09,-147.93 353.28,-246.45 -132.05,10.99 -196.92,51.76 -338.3,85.04 -925.8,217.91 -1890.15,-64.84 -1177.45,-1248.01 185.83,-308.5 341.39,-370.48 386.86,-565.64 -587.6,393.47 -697.28,493.89 -1340.56,493.89 -533.5,0 -553.05,-763.93 -392.76,-1274.71 52.55,-167.44 146.37,-375.38 181.1,-524.46 -104.92,37.98 -40.42,-4.21 -128.77,118.18 -488.7,676.93 -1398.43,1358.64 -1737.75,266.67 -62.46,-201.03 -53.28,-280.91 -79.98,-520.21 -30,-268.95 6.22,-272.61 6.22,-534.91 -113.54,83.18 -90.72,167.63 -171.45,392.99 -74.98,209.27 -263.76,556.03 -417.61,711.28 -382.14,385.61 -841.46,202.51 -1146.9,-285.53 -102.99,-164.55 -291.12,-590.01 -310.15,-818.74l-70.56 0c0,238.25 67.09,555.16 -41.4,946.37 -85.06,306.74 -172.89,477.52 -417.21,641.12z"/>
   <path class="fil2" d="M1375.18 9920.49c139.75,264.12 563.61,624.89 825.23,797.54 186.21,122.89 295.33,204.48 503.4,307.99 931.62,463.51 392.29,237.61 1754.44,-668.3 227.72,-151.45 390.61,-251.85 644.6,-378.45 1120.78,-558.64 1918.92,-757.14 3227.16,-900.34 290.74,-31.83 744.89,-5.11 1053.22,-5.11l0 -70.56c-229.09,0 -382.5,-46.64 -569.83,-65.16 -237.77,-23.52 -382.98,-29.06 -608.76,-61.53l-1255.58 -49.7c-1714.05,0 -2830.95,223.99 -4331.76,642.41 -396.52,110.54 -590.05,208.39 -938.04,331.95 -134.65,47.81 -183.06,91.06 -304.08,119.26z"/>
   <path class="fil0" d="M7725.17 5122.71c-37.6,-140.83 -290.38,-378.58 -396.87,-485.07 -325.54,-325.54 -397.32,-364.85 -746.28,-594.28 -113.96,-74.93 -161.76,-106.23 -290.86,-167.74 -973.39,-463.78 -1958.73,-572.81 -3028.35,-216.66 -275.51,91.73 -402.58,157.67 -641.22,276 -230.46,114.28 -354.74,201.12 -541.12,340.82l-233.85 189.48c-748.12,643.4 -1102.76,1432.18 -1292.75,2376.14 -26.34,130.89 -84.05,1163.39 27.37,1229.58 69.22,41.12 692.52,-94.31 758.66,-126.05 0,-402.38 -105.81,-679.05 65.22,-1310.61 313.09,-1156.08 931.94,-1940.43 1986.07,-2458.93 1195.23,-587.89 2939.07,-394.02 3955.46,585.01 132.12,127.26 231.77,264.04 378.52,362.31z"/>
   <path class="fil1" d="M3562.4 11331.6c316.87,152.04 1497.94,136.45 1855.27,20.82 160.39,-51.9 465.87,-708.34 966.95,-1043.88 0,199.91 0.14,399.82 -0.01,599.73 -0.37,513.63 -84.2,529.16 282.23,529.16 218.16,0 -22.28,-376.62 282.22,-599.72 27.08,116.22 219.53,506.09 282.23,599.72l352.77 0c-16.04,-192.74 -257.06,-585.25 -341.29,-790.57 -79.81,-194.54 -9.11,-241.37 87.05,-380.85 42.47,-61.61 81.23,-111.88 119.41,-170.72 98.95,-152.5 52.71,-139.53 -182.67,-139.53 -147.53,0 -317.75,397.09 -493.89,599.73l0 -564.45c158.49,-36.92 249.37,-125.36 399.4,-200.33 398.43,-199.11 432.09,-224.03 866.09,-368.63 76.12,-25.36 142.7,-50.22 239.6,-77.9 121.98,-34.84 145.54,-26.19 223.52,-93.97 -1433.5,0 -2821.22,526.91 -3993.66,1262.72 -288.57,181.11 -563.31,438.99 -825,656.67 -108.57,90.31 -89.17,45.69 -120.22,162z"/>
   <path class="fil3" d="M5714.34 5272.41l59.38 132.52c-184.87,102.19 -165.11,11.45 -235.59,246.73l140.93 0.39c267.34,74.04 30.11,-134.1 352.78,-141.28l0 70.55c-173.09,40.33 -140.53,41.95 -211.66,176.39 452.41,239.39 305.15,-147.4 634.99,-70.56 -111.9,152.75 -190.91,-2.44 -211.66,246.95 146.87,34.22 199.67,93 349.18,33.06 159.74,-64.05 162.49,-166.11 285.82,2.22 -179.02,41.7 -191.37,40.71 -282.22,176.39 84.45,56.55 130.25,111.7 282.41,109.81 155.74,-1.92 168.77,-49.88 282.03,-109.81l147.64 170.25c-229.11,6.13 -266.98,9.37 -359.31,147.24 200.58,273.76 472.91,81.11 599.73,70.56 41.69,156.17 214.35,234.09 285.93,458.61 81.08,94.43 236.83,213.73 384.34,249.2 -328.77,-644.88 -318.98,-482.35 -564.44,-848.92 48.21,-206.93 181.11,-223.89 -70.56,-599.72 -119,79.69 -161.16,134.5 -176.39,317.5 -347.2,-92.71 146.49,-511.11 -317.5,-635 -41.21,176.89 -70.55,98.18 -70.55,352.78 -256.19,-135.57 -104.89,-78.66 -111.69,-315.36 -4.67,-162.79 -92.31,-224.31 -205.81,-284.37 -80.55,152.22 -110.34,182.01 -70.56,352.78 -429.72,-35.76 -3.56,-423.15 -458.61,-529.17 -48.03,206.17 -48.03,181.89 0,388.06 -243.31,-116.75 -151.7,90.49 -222.21,-236.4 -31.2,-144.66 -90.98,-207.17 -271.68,-222.21 -9.91,119.13 -44.22,197.12 35.28,290.81z"/>
   <path class="fil1" d="M10300.45 10061.6l0 1270c0,140.65 99.94,105.83 352.78,105.83 5.17,-232.18 410.77,-741.06 458.61,-776.11 0,141.16 1.27,282.88 -0.64,423.97 -4.71,349.42 -47.54,352.14 247.58,352.14 81.29,0 105.84,-24.55 105.84,-105.83l0 -1270c0,-175.77 -244.38,-95.81 -352.78,-70.56 0,216.33 -88.34,283.35 -186.3,413.42 -80.02,106.25 -186.56,299.86 -272.31,362.69 0,-832.1 83.88,-811.39 -246.95,-811.39 -81.28,0 -105.83,24.55 -105.83,105.84z"/>
   <path class="fil1" d="M11711.56 10061.6l0 1270c0,161.31 388.06,161.31 388.06,0l0 -493.89 388.05 0c0,694.29 -80.06,599.72 352.78,599.72l0 -1375.83c0,-157.64 -352.78,-157.64 -352.78,0l0 458.61 -388.05 0 -35.28 -564.45c-163.48,0 -352.78,-50.64 -352.78,105.84z"/>
   <path class="fil1" d="M8254.34 10449.65c4.38,196.76 66.17,191.3 70.56,388.06l-211.67 0c12.19,-146.5 39.24,-313.42 141.11,-388.06zm-635 987.78c305.46,0 304.49,41.21 388.06,-317.5l423.33 0c148,308.44 -92.78,317.5 458.61,317.5 0,-203.55 -254.43,-914.43 -331.08,-1150.58 -112.69,-347.18 -20.33,-331.09 -409.75,-331.09 -126.66,0 -151.1,182.2 -190.28,303.62 -44.66,138.41 -67.81,242.87 -113.53,380.36 -46.4,139.56 -82.9,236.56 -123.78,370.1 -62.79,205.14 -101.58,246.44 -101.58,427.59z"/>
   <path class="fil1" d="M13616.56 10449.65c4.38,196.76 66.17,191.3 70.56,388.06l-211.67 0c12.19,-146.5 39.24,-313.42 141.11,-388.06zm-635 987.78c305.46,0 304.49,41.21 388.06,-317.5l423.33 0c148,308.44 -92.78,317.5 458.61,317.5 -4.36,-195.59 -245.38,-888.62 -331.02,-1150.65 -113.26,-346.53 -19.04,-331.02 -409.81,-331.02 -126.66,0 -151.1,182.2 -190.28,303.62 -69.57,215.63 -335.23,1013.79 -338.89,1178.05z"/>
   <path class="fil4" d="M8959.9 11437.43c326.69,0 292.42,26.9 358.8,-205.64 39.16,-137.2 172.21,-744.4 240.92,-852.69l217.65 840.68c56.9,245.35 -21.22,217.65 417.35,217.65 0,-229.66 -126.94,-541.67 -196.81,-790.97 -41.27,-147.25 -66.27,-245.84 -105.15,-388.73 -91.33,-335.59 -47.55,-301.97 -438.88,-301.97 -163.83,0 -223.83,406.77 -302.62,685.16 -42.28,149.39 -57.79,244.35 -100.32,393.56 -39.79,139.58 -87.42,244.62 -90.94,402.95z"/>
   <path class="fil5" d="M4656.01 12636.87c0,81.29 24.55,105.84 105.83,105.84l1023.06 0c81.28,0 105.83,-24.55 105.83,-105.84l0 -917.22 -246.94 0 0 776.11 -246.95 0 0 -776.11 -246.94 0 0 776.11 -246.95 0 0 -776.11 -246.94 0 0 917.22z"/>
   <path class="fil5" d="M8995.17 12495.76l-211.66 0 0 -176.39 211.66 0c99.35,0 65.32,15.26 105.84,70.56 -20.99,78.61 -8.24,105.83 -105.84,105.83zm-35.27 -388.05l-176.39 0 0 -176.39 282.22 0c-2.52,113.05 11.49,176.39 -105.83,176.39zm-423.34 529.16c0,140.66 99.94,105.84 352.78,105.84 359.53,0 557.12,-177.08 463.54,-388.78 -60.65,-137.22 -68.19,-69.42 -146.04,-175.67 257.14,-68.66 153.08,-458.61 -141.11,-458.61l-529.17 0 0 917.22z"/>
   <path class="fil5" d="M6419.9 12636.87c0,174.19 189.42,92.18 282.22,70.56l0 -388.06 246.94 0c0,393.92 -37.62,423.34 141.11,423.34 148.92,0 128.8,-151.58 120.22,-263.69l-14.38 -759.37 -246.95 0 0 388.06 -246.94 0c0,-437.59 47.87,-388.06 -282.22,-388.06l0 917.22z"/>
   <path class="fil5" d="M3597.68 12389.93c0,-224.86 -46.81,-458.61 141.11,-458.61 175.85,0 175.89,295.7 153.54,398.16 -66.7,305.82 -294.65,192.9 -294.65,60.45zm-282.23 -282.22c0,274.13 13.92,635 458.62,635 525.11,0 525.59,-1058.34 -35.28,-1058.34 -83.43,0 -239.2,77.35 -292.81,130.53 -60.58,60.11 -130.53,184.11 -130.53,292.81z"/>
   <path class="fil5" d="M12381.84 12636.87c0,108.61 48.88,105.84 141.11,105.84 223.36,0 -36.78,-198.07 246.94,-388.06 133.64,252.56 121.73,388.06 352.78,388.06 297.56,0 -285.74,-504.57 -129.74,-760.97l165.02 -262.09 -246.95 0c-62.17,117.5 -183.99,322.28 -282.22,388.06l0 -388.06 -246.94 0 0 917.22z"/>
   <path class="fil5" d="M13974.69 12108.88l65.2 -1.17 40.63 210.49 -146.46 1.17 40.63 -210.49zm-287.57 633.83c268.76,0 -67.69,-211.67 388.05,-211.67 241.56,0 -85.11,211.67 388.06,211.67 0,-235.71 -220.91,-759.86 -282.23,-1023.06l-282.22 0 -270.26 792.2c-38.61,125.03 -88.25,230.86 58.6,230.86z"/>
   <path class="fil5" d="M9806.56 12178.26c0,762.78 835.09,696.33 846.67,176.39l-246.95 0c-23.44,100.63 -45.88,119.53 -105.83,176.39 -235.8,-54.94 -211.67,-165.46 -211.67,-388.06 0,-160.67 52.46,-211.66 176.39,-211.66 259.5,0 -131.43,176.39 388.06,176.39 -11.45,-514.05 -556.57,-487.72 -729.07,-270.47 -71.65,90.23 -117.6,192.94 -117.6,341.02z"/>
   <path class="fil5" d="M11394.06 12284.1l141.11 0c81.29,0 105.84,24.54 105.84,105.83l0 105.83 -246.95 0 0 -211.66zm-246.94 -105.84c0,541.11 -103.4,564.45 282.22,564.45 727.42,0 546.05,-670.28 176.39,-670.28l-211.67 0c0,-389.67 38.44,-352.78 -246.94,-352.78l0 458.61z"/>
   <path class="fil5" d="M2151.29 12742.71c142.87,0 111.55,15.77 196.95,-296.94 36.64,-134.18 82.16,-268.94 85.27,-408.62 112.45,82.39 97.02,210.7 136.63,357.26 74.47,275.65 44.09,348.3 251.43,348.3 180.94,0 62.51,-210.24 -23.01,-506.17 -28.87,-99.91 -55.49,-191.53 -77.92,-274.85 -69.52,-258.22 -5.37,-242.04 -322.41,-242.04 -131.66,0 -142.12,233.67 -224.18,516.66 -95.63,329.82 -189.22,506.4 -22.76,506.4z"/>
   <path class="fil6" d="M7724.2 7170.3c42.7,-46.94 -63.72,-43.63 72.78,-36.64 -118.06,-123.2 -59.43,4.82 -117,-153.4l121.8 10.93c-723.17,-593.92 -2378.38,-610.23 -2757.72,-280.51 259.85,-5.79 543.48,-190.52 1374.09,-101.3 286.91,30.82 1010.28,247.71 1136.15,419.5 -253.02,-58.95 -994.84,-157.8 -1272.8,35.36 546.51,0 476.34,-111.41 1105.3,26.09 139.52,30.51 220.98,69.42 337.4,79.97z"/>
   <path class="fil7" d="M7745.17 11825.48c0,644.37 -88.08,917.23 176.39,917.23 81.29,0 105.84,-24.55 105.84,-105.84l0 -917.22c-199.94,0 -282.23,-27.71 -282.23,105.83z"/>
   <path class="fil8" d="M6694.92 7451.04c-42.06,-72.63 -11.83,-5.23 -31.43,-114.21l155.65 -8.66c-691.08,-222.36 -2121.93,89.95 -2410.08,475.65 204.11,-46.63 294.17,-117.91 487.36,-192.33 503.02,-193.76 942.42,-212.6 1492.58,-196.88 171.71,4.9 163.66,32.64 305.92,36.43zm0 0c88.78,33.14 176.78,38.63 268.92,70.08 74.57,25.45 167.17,81.45 248.54,103.21 -38.47,-26.98 -17.94,-60.18 -47.31,-111.1l245.54 8.55c-30.1,-24.22 -132.5,-58.24 -209.35,-92.66 -12.03,-5.38 -97.9,-33.56 -106.58,-36.36 -116.07,-37.43 -139.04,-39.49 -275.54,-64.59l-155.65 8.66c19.6,108.98 -10.63,41.58 31.43,114.21z"/>
   <path class="fil3" d="M5543.74 5651.66c71.38,-235.28 51.37,-144.54 238.58,-246.73l-60.13 -132.52c-59.01,64.95 71.64,61.97 -178.63,61.97 0,-257.76 -63.27,-382.38 -321.52,-388.06 0,252.15 62.43,198.41 107.18,388.06 -451.29,161.31 -153.86,508.39 86.99,227.26 104.25,-121.69 0.82,-140.44 198.81,-156.71 -413.31,551.67 686.28,135.95 -71.28,246.73z"/>
   <path class="fil9 str0" d="M7462.91 5214.56l27.78 22.75c24.82,20.31 36.42,31.21 51.73,59.38l18.69 34.39c15.29,28.13 23.18,154.03 1.8,130.15l-81.24 -90.7c-21.37,-23.87 -40.07,-41.26 -57.64,-68.05l-19.43 -29.61c-17.58,-26.8 33.49,-78.62 58.31,-58.31z"/>
   <path class="fil10" d="M7494.09 5390.14l-53.53 -153.46 108.23 1.35 -284.96 -304.25c-290.51,-252.98 -788.16,-639.02 -1196.71,-673.01 76.73,104.72 410.84,208.79 755.83,478.88 348.15,272.57 616.73,614.73 671.14,650.49zm496.49 886.23c26.83,74.52 31.39,88.34 56.92,156.78 37.63,100.9 75.35,225.86 136.29,336.16 28.71,-21.7 50.8,-14.82 70.55,-39.4 23.35,31.18 37.13,19.55 78.34,42.01 -44.68,-224.69 -150.13,-502.41 -263.48,-712.46l-26.53 -42.42c-103.72,-224.56 -313.44,-645.04 -493.88,-779.01l-108.23 -1.35 38.82 116.1c23.45,92.75 229.96,338.13 339.25,567.74 73.17,153.74 114.99,197.62 171.95,355.85z"/>
   <path class="fil3" d="M4938.23 5369.65c-207.03,55.28 -260.49,282.23 -141.11,282.23 374.88,0 443.15,-633.4 0,-670.28 0,372.63 78.91,155.09 141.11,388.05z"/>
   <path class="fil11" d="M8502.6 7128.49l10.2 -155.26 94.32 172.47c0,-292.63 -82.54,-564 -147.95,-806.7 -28.64,-106.24 -73.87,-219.91 -123.23,-335.39 -50.86,-119.01 -95.99,-239.46 -187.43,-306.46 9.68,116.41 66.88,221.79 106.09,317.25 89.44,217.78 135.48,451.04 185.52,696.42 44.22,216.84 6.98,240.25 38.15,350.41l24.33 67.26z"/>
   <path class="fil3" d="M4373.79 5440.21c189.35,90.86 405.33,75.2 423.33,-141.11 -224.45,-52.29 -301.88,-88.42 -423.33,141.11z"/>
   <polyline class="fil12" points="7725.17,5157.99 7766.33,5128.59 7725.17,5122.71 "/>
   <polygon class="fil13" points="8148.51,5687.15 8129.1,5611.31 "/>
  </g>
 </g>
</svg>
